<svg width="1392" height="163" viewBox="0 0 1392 163" fill="none" xmlns="http://www.w3.org/2000/svg">
<path d="M1244.4 203.066V1.78906H1392V36.2297H1295.24V84.6852H1385.12V117.486H1295.24V168.625H1392V203.066H1244.4Z" fill="#DBFE02"/>
<path d="M1160.03 203.066V1.78906H1210.73V203.066H1160.03Z" fill="#DBFE02"/>
<path d="M1001.69 203.066L941.424 1.78906H993.017L1036.24 167.432H1036.54L1079.6 1.78906H1131.2L1070.93 203.066H1001.69Z" fill="#DBFE02"/>
<path d="M838.845 204.706C803.253 204.706 778.279 196.108 763.922 178.913C749.665 161.618 742.537 136.123 742.537 102.427C742.537 68.6329 749.665 43.1378 763.922 25.9423C778.179 8.64744 803.153 0 838.845 0C874.636 0 899.66 8.64744 913.917 25.9423C928.174 43.2372 935.302 68.7323 935.302 102.427C935.302 136.123 928.174 161.618 913.917 178.913C899.66 196.108 874.636 204.706 838.845 204.706ZM838.845 170.265C852.603 170.265 863.669 166.389 872.044 158.636C880.419 150.784 884.606 132.047 884.606 102.427C884.606 72.3105 880.419 53.475 872.044 45.9209C863.669 38.2674 852.603 34.4407 838.845 34.4407C825.186 34.4407 814.17 38.2674 805.795 45.9209C797.52 53.475 793.383 72.3105 793.383 102.427C793.383 132.047 797.52 150.784 805.795 158.636C814.17 166.389 825.186 170.265 838.845 170.265Z" fill="#DBFE02"/>
<path d="M473.758 203.066V1.78906H556.008L594.89 161.469H595.488L634.52 1.78906H716.621V203.066H666.373V36.677H665.625L624.799 197.549H565.579L524.753 36.677H524.005V203.066H473.758Z" fill="#DBFE02"/>
<path d="M263.738 203.066V128.072L186.871 1.78906H242.054L289.011 88.4126H289.31L336.118 1.78906H391.151L314.434 128.221V203.066H263.738Z" fill="#DBFE02"/>
<path d="M0 203.066V1.78906H116.496C141.122 1.78906 156.525 6.85825 162.706 16.9966C168.987 27.0356 172.128 37.8698 172.128 49.4991C172.128 61.3272 169.486 71.8135 164.202 80.9579C159.017 90.0029 150.493 94.7242 138.629 95.1218C150.693 95.8176 160.064 100.787 166.744 110.031C173.424 119.275 176.763 131.004 176.763 145.217C176.763 161.518 173.723 175.235 167.641 186.367C161.56 197.5 146.057 203.066 121.132 203.066H0ZM50.9952 168.625H108.271C115.45 168.625 120.185 166.339 122.478 161.767C124.771 157.095 125.918 149.839 125.918 139.999C125.918 130.556 124.572 123.4 121.88 118.53C119.288 113.659 113.805 111.224 105.43 111.224H50.9952V168.625ZM50.9952 80.6597H102.14C109.617 80.6597 114.602 78.5227 117.095 74.2487C119.587 69.8752 120.833 64.0606 120.833 56.8047C120.833 50.0458 119.687 44.9269 117.394 41.448C115.2 37.8698 110.664 36.0806 103.785 36.0806H50.9952V80.6597Z" fill="#DBFE02"/>
</svg>
