<svg width="19" height="20" viewBox="0 0 19 20" fill="none" xmlns="http://www.w3.org/2000/svg">
<path d="M8.98405 0C7.37821 0.0233333 3.92821 0.286667 2.00071 2.05583C0.569046 3.48917 0.0640458 5.58333 0.0115458 8.18083C-0.0409542 10.7775 -0.109288 15.6467 4.58405 16.9667H4.58655L4.58321 18.98C4.58321 18.98 4.55238 19.7942 5.09155 19.9608C5.73905 20.1625 6.11988 19.5442 6.74155 18.8758C7.08071 18.5092 7.55155 17.9725 7.90571 17.5592C11.114 17.8308 13.5824 17.2125 13.864 17.1217C14.5107 16.9117 18.1774 16.4417 18.774 11.5742C19.3907 6.5575 18.474 3.3825 16.824 1.9525C16.3274 1.49417 14.319 0.0358333 9.84488 0.0166667C9.84488 0.0166667 9.51571 -0.00416667 8.98071 0.0025L8.98405 0ZM9.03238 1.41083C9.48655 1.4075 9.76571 1.425 9.76571 1.425C13.5507 1.44167 15.3632 2.58167 15.784 2.96333C17.1799 4.15917 17.8924 7.02 17.3724 11.2108V11.2125C16.869 15.2775 13.894 15.5325 13.3457 15.7083C13.1124 15.7833 10.944 16.3225 8.21821 16.145C8.21821 16.145 6.18821 18.595 5.55405 19.2317C5.45405 19.3317 5.33738 19.3708 5.26071 19.3517C5.15238 19.3242 5.12238 19.195 5.12321 19.0067L5.13988 15.6583C1.17155 14.5583 1.40238 10.415 1.44821 8.24583C1.49321 6.07583 1.90071 4.2975 3.11155 3.10167C4.74488 1.62417 7.67321 1.42 9.03655 1.41L9.03238 1.41083ZM9.34905 3.57917C9.20988 3.57917 9.09655 3.69167 9.09571 3.83083C9.09571 3.97 9.20654 4.08333 9.34571 4.085C10.699 4.09333 11.8007 4.5325 12.7024 5.41167C13.5965 6.28333 14.0524 7.46833 14.0632 9.02333C14.0649 9.1625 14.1799 9.27333 14.319 9.27333C14.4574 9.27167 14.569 9.15833 14.569 9.02C14.5574 7.36667 14.054 6.02333 13.0557 5.05C12.064 4.08333 10.8115 3.58917 9.34905 3.57917ZM6.04905 4.15833C5.89071 4.13167 5.71571 4.1625 5.53571 4.25583L5.52738 4.2575C5.16905 4.46333 4.84738 4.72583 4.57238 5.03417C4.57071 5.0375 4.56738 5.0375 4.56571 5.04083C4.34321 5.31 4.21571 5.5725 4.18238 5.83083C4.17571 5.86917 4.17405 5.90833 4.17655 5.9475C4.17655 6.06083 4.19488 6.1725 4.23071 6.28083L4.24155 6.28917C4.35405 6.68917 4.63571 7.3525 5.24571 8.45917C5.59571 9.09916 5.99821 9.70916 6.45071 10.2808C6.67571 10.5675 6.91738 10.8417 7.17571 11.1008L7.28571 11.2108C7.54405 11.4675 7.81905 11.7108 8.10571 11.9358C8.67738 12.3883 9.28738 12.7917 9.92738 13.1417C11.034 13.7525 11.699 14.0333 12.0974 14.1467L12.1057 14.1583C12.214 14.1933 12.3265 14.2117 12.4407 14.2108C12.479 14.2125 12.5174 14.2108 12.5557 14.2042C12.814 14.1742 13.0782 14.0458 13.3457 13.8208C13.349 13.8208 13.3482 13.8192 13.3524 13.8167C13.6607 13.5417 13.9215 13.2167 14.1274 12.86L14.1299 12.8517C14.3174 12.4917 14.2549 12.15 13.9799 11.9183C13.9765 11.9183 13.3982 11.435 13.1157 11.2267C12.8157 11.0142 12.5074 10.8167 12.1882 10.635C11.7632 10.3975 11.3282 10.5467 11.1482 10.78L10.7757 11.25C10.584 11.4858 10.2282 11.455 10.2282 11.455C7.62821 10.7917 6.93238 8.15917 6.93238 8.15917C6.93238 8.15917 6.90155 7.80417 7.13905 7.6125L7.60821 7.23917C7.83905 7.06 7.98821 6.625 7.74988 6.19917C7.56905 5.88 7.37154 5.56917 7.15821 5.27C6.94988 4.98667 6.46988 4.40917 6.46655 4.4075C6.35238 4.27 6.20821 4.18667 6.04821 4.16L6.04905 4.15833ZM9.79071 4.89167C9.65905 4.89333 9.54905 4.995 9.54071 5.12667C9.53238 5.26583 9.63655 5.38667 9.77571 5.39667C10.7424 5.4675 11.4565 5.785 11.9799 6.355C12.5049 6.92833 12.7549 7.625 12.7349 8.49667C12.7332 8.63667 12.8432 8.75167 12.9849 8.755C13.1232 8.7575 13.239 8.64666 13.2432 8.5075C13.264 7.52833 12.9649 6.68 12.354 6.0125C11.7374 5.3375 10.8732 4.96833 9.81238 4.89083H9.79238L9.79071 4.89167ZM10.1765 6.25C10.0432 6.25167 9.93488 6.35583 9.92655 6.48917C9.91988 6.62833 10.0265 6.7475 10.1665 6.75583C10.6024 6.77917 10.8957 6.90167 11.094 7.1075C11.294 7.31167 11.4174 7.62417 11.4407 8.0775C11.449 8.21667 11.5657 8.32333 11.7057 8.31666C11.8449 8.31 11.9515 8.19167 11.9449 8.0525C11.9199 7.51583 11.7657 7.07083 11.4615 6.755C11.1557 6.44 10.7174 6.27667 10.1949 6.24917H10.1799L10.1765 6.25Z" fill="#494949"/>
</svg>
