<svg width="20" height="20" viewBox="0 0 20 20" fill="none" xmlns="http://www.w3.org/2000/svg">
<path d="M14.5125 11.985C14.265 11.8609 13.0475 11.2625 12.8208 11.1792C12.5933 11.0967 12.4283 11.0559 12.2625 11.3042C12.0983 11.5517 11.6233 12.1092 11.4792 12.2742C11.335 12.44 11.19 12.46 10.9425 12.3367C10.695 12.2117 9.89667 11.9509 8.95083 11.1075C8.215 10.4509 7.7175 9.64003 7.57333 9.3917C7.42917 9.1442 7.55833 9.01003 7.68166 8.8867C7.79333 8.77587 7.93 8.59753 8.05333 8.45337C8.1775 8.30837 8.21833 8.20503 8.30167 8.0392C8.38416 7.8742 8.34333 7.73003 8.28083 7.60587C8.21833 7.4817 7.72333 6.26253 7.5175 5.7667C7.31583 5.2842 7.11167 5.35003 6.96 5.3417C6.81583 5.33503 6.65083 5.33337 6.485 5.33337C6.32 5.33337 6.05167 5.39503 5.825 5.64337C5.59833 5.89087 4.95833 6.49003 4.95833 7.7092C4.95833 8.92753 5.84583 10.105 5.96917 10.2709C6.09333 10.4359 7.71583 12.9375 10.2 14.01C10.7908 14.265 11.2517 14.4175 11.6117 14.5309C12.205 14.72 12.745 14.6934 13.1708 14.6292C13.6467 14.5584 14.6358 14.03 14.8425 13.4517C15.0492 12.8734 15.0492 12.3775 14.9867 12.2742C14.925 12.1709 14.7608 12.1092 14.5125 11.985ZM9.99417 18.1542H9.99083C8.51564 18.1543 7.06757 17.7577 5.79833 17.0059L5.4975 16.8275L2.38 17.6459L3.21167 14.6059L3.01583 14.2942C2.1912 12.9811 1.75495 11.4614 1.7575 9.91087C1.75833 5.3692 5.45417 1.6742 9.9975 1.6742C12.1975 1.6742 14.2658 2.53253 15.8208 4.0892C16.5881 4.85305 17.1962 5.76147 17.61 6.7619C18.0238 7.76233 18.2351 8.8349 18.2317 9.91753C18.2292 14.4592 14.5342 18.1542 9.99417 18.1542ZM17.005 2.9067C16.0868 1.98247 14.9944 1.24965 13.7909 0.750701C12.5875 0.251754 11.2969 -0.00339687 9.99417 3.4148e-05C4.53167 3.4148e-05 0.0858333 4.44587 0.0833333 9.91003C0.0833333 11.6567 0.539167 13.3617 1.40667 14.8642L0 20L5.25417 18.6217C6.70716 19.4133 8.33536 19.8282 9.99 19.8284H9.99417C15.4558 19.8284 19.9025 15.3825 19.905 9.91753C19.909 8.61526 19.6548 7.32512 19.157 6.12173C18.6592 4.91834 17.9278 3.82559 17.005 2.9067Z" fill="#494949"/>
</svg>
